<?xml version="1.0" encoding="UTF-8"?>
<!DOCTYPE svg PUBLIC "-//W3C//DTD SVG 1.1//EN" "http://www.w3.org/Graphics/SVG/1.1/DTD/svg11.dtd">
<svg xmlns="http://www.w3.org/2000/svg" xml:space="preserve" width="40px" height="40px" version="1.1"
     style="shape-rendering:geometricPrecision; text-rendering:geometricPrecision; image-rendering:optimizeQuality; fill-rule:evenodd; clip-rule:evenodd"
     viewBox="0 0 4000 4000">
 <path id="Tilda_Icons_26sn_vkontakte.svg" style="fill: #278db5" d="M2867 2264c16,19 53,57 112,114l1 0 1 1 1 1 3 3c130,121 219,223 265,307 3,5 6,10 9,17 3,7 6,19 10,37 3,18 3,33 -1,47 -4,14 -15,27 -35,38 -19,12 -47,17 -82,17l-355 6c-22,5 -48,2 -78,-7 -30,-9 -54,-19 -72,-31l-28 -17c-28,-19 -60,-49 -97,-89 -37,-40 -69,-76 -95,-108 -26,-32 -55,-59 -85,-81 -30,-22 -56,-29 -78,-22 -3,1 -7,3 -11,5 -5,2 -13,9 -24,20 -11,11 -21,25 -30,41 -9,16 -17,40 -24,72 -7,32 -10,68 -9,108 0,14 -2,27 -5,38 -3,12 -7,20 -10,26l-6 7c-17,18 -41,28 -74,31l-159 0c-66,4 -133,-4 -203,-23 -69,-19 -130,-43 -182,-74 -52,-30 -100,-61 -143,-92 -43,-31 -76,-58 -98,-80l-35 -33c-9,-9 -22,-23 -38,-42 -16,-18 -49,-61 -99,-126 -50,-66 -99,-135 -147,-210 -48,-74 -105,-172 -170,-293 -65,-121 -126,-247 -181,-377 -6,-15 -8,-27 -8,-37 0,-10 1,-18 4,-22l6 -8c14,-18 40,-26 79,-26l380 -3c11,2 22,5 32,9 10,4 18,8 22,12l7 4c15,10 26,25 33,44 18,46 40,94 64,144 24,49 43,87 57,113l22 40c27,55 53,104 78,144 25,41 47,72 67,95 20,23 39,41 58,53 18,13 34,19 47,19 13,0 25,-2 37,-7 2,-1 4,-3 7,-7 3,-4 8,-14 17,-31 8,-17 15,-38 19,-65 4,-27 9,-64 13,-112 5,-48 5,-106 0,-173 -2,-37 -6,-71 -13,-101 -7,-31 -13,-52 -19,-64l-8 -17c-23,-31 -62,-51 -118,-60 -12,-2 -10,-13 7,-33 16,-18 33,-31 53,-42 49,-24 160,-35 332,-33 76,1 138,7 187,18 18,5 34,11 46,19 13,8 22,19 28,33 6,14 11,29 15,44 3,15 5,36 5,63 0,27 0,52 -1,76 -1,24 -2,57 -3,98 -1,41 -2,79 -2,114 0,10 0,30 -1,58 -1,29 -1,51 -1,67 0,16 2,35 5,56 3,22 8,40 16,54 8,14 18,26 31,34 7,2 15,4 24,6 8,2 20,-3 36,-15 16,-12 33,-28 53,-48 19,-20 43,-51 72,-93 29,-42 60,-92 94,-149 56,-96 105,-200 148,-312 4,-9 8,-17 14,-24 6,-7 11,-12 15,-15l6 -4c2,-1 4,-2 7,-3 3,-1 9,-3 18,-4 9,-1 18,-2 28,-1l400 -3c36,-5 66,-3 89,3 23,7 37,15 43,23l8 14c21,59 -48,195 -208,408 -22,30 -52,69 -90,118 -72,93 -114,153 -125,182 -16,38 -9,75 19,112z"/>
</svg>
