<?xml version="1.0" encoding="UTF-8"?>
<!DOCTYPE svg PUBLIC "-//W3C//DTD SVG 1.1//EN" "http://www.w3.org/Graphics/SVG/1.1/DTD/svg11.dtd">
<svg xmlns="http://www.w3.org/2000/svg" xml:space="preserve" width="40px" height="40px" version="1.1"
     style="shape-rendering:geometricPrecision; text-rendering:geometricPrecision; image-rendering:optimizeQuality; fill-rule:evenodd; clip-rule:evenodd"
     viewBox="0 0 4000 4000">
 <path id="Tilda_Icons_26snw_youtube.svg" style="fill: #ff0000" d="M3382 1395c-27,-212 -150,-346 -367,-365 -249,-23 -789,-35 -1039,-35 -512,0 -741,12 -983,38 -231,24 -332,126 -371,338 -28,148 -40,287 -40,616 0,295 14,480 35,636 30,214 177,335 392,353 251,21 753,31 1002,31 240,0 780,-13 1020,-40 215,-24 317,-139 351,-351 0,0 35,-232 35,-632 0,-228 -17,-440 -35,-588zm-1684 1004l0 -815 776 403 -776 412z"/>
</svg>
